<svg id="kity_svg_6" xmlns="http://www.w3.org/2000/svg" xmlns:xlink="http://www.w3.org/1999/xlink" version="1.1" width="1897" height="1376" style="background: rgb(251, 251, 251); visibility: visible;" viewBox="0 0 1897 1376"><defs id="kity_defs_7"><linearGradient id="kity_linearGradient_17" x1="0" y1="0" x2="0" y2="1"><stop id="kity_stop_18" offset="0" stop-color="rgb(255, 255, 255)"></stop><stop id="kity_stop_19" offset="1" stop-color="rgb(204, 204, 204)"></stop></linearGradient><marker id="kity_marker_2" orient="auto" refX="6" refY="0" viewBox="-7 -7 14 14" markerWidth="7" markerHeight="7" markerUnits="userSpaceOnUse"><path id="kity_path_3" fill="rgb(115, 161, 191)" stroke="none" d="M6,0A6,6,0,1,1,-6,0A6,6,0,1,1,6,0"></path></marker></defs><g id="kity_g_8"><g id="minder1" text-rendering="optimize-speed"><g id="minder_connect_group1"><path id="kity_path_31" fill="none" stroke="rgb(115, 161, 191)" stroke-width="1" d="M1028.0000277236752,684.5000216440014A183.5,576,0,0,1,1211.5000277236752,108.50002164400144"></path><path id="kity_path_33" fill="none" stroke="rgb(115, 161, 191)" stroke-width="1" d="M1282.5000277236752,108.50002164400144C1297.5000277236752,108.50002164400144,1297.5000277236752,44.500021644001436,1312.5000277236752,44.500021644001436L1547.5000277236752,44.500021644001436"></path><path id="kity_path_35" fill="none" stroke="rgb(115, 161, 191)" stroke-width="1" d="M1282.5000277236752,108.50002164400144C1297.5000277236752,108.50002164400144,1297.5000277236752,96.50002164400144,1312.5000277236752,96.50002164400144L1460.5000277236752,96.50002164400144"></path><path id="kity_path_37" fill="none" stroke="rgb(115, 161, 191)" stroke-width="1" d="M1282.5000277236752,108.50002164400144C1297.5000277236752,108.50002164400144,1297.5000277236752,148.50002164400144,1312.5000277236752,148.50002164400144L1512.5000277236752,148.50002164400144"></path><path id="kity_path_39" fill="none" stroke="rgb(115, 161, 191)" stroke-width="1" d="M1282.5000277236752,108.50002164400144C1297.5000277236752,108.50002164400144,1297.5000277236752,200.50002164400144,1312.5000277236752,200.50002164400144L1443.5000277236752,200.50002164400144"></path><path id="kity_path_41" fill="none" stroke="rgb(115, 161, 191)" stroke-width="1" d="M1028.0000277236752,684.5000216440014A183.5,383.5,0,0,1,1211.5000277236752,301.00002164400144"></path><path id="kity_path_43" fill="none" stroke="rgb(115, 161, 191)" stroke-width="1" d="M1359.5000277236752,301.00002164400144C1374.5000277236752,301.00002164400144,1374.5000277236752,263.50002164400144,1389.5000277236752,263.50002164400144L1626.5000277236752,263.50002164400144"></path><path id="kity_path_45" fill="none" stroke="rgb(115, 161, 191)" stroke-width="1" d="M1359.5000277236752,301.00002164400144C1374.5000277236752,301.00002164400144,1374.5000277236752,315.50002164400144,1389.5000277236752,315.50002164400144L1547.5000277236752,315.50002164400144"></path><path id="kity_path_47" fill="none" stroke="rgb(115, 161, 191)" stroke-width="1" d="M1359.5000277236752,301.00002164400144C1374.5000277236752,301.00002164400144,1374.5000277236752,367.50002164400144,1389.5000277236752,367.50002164400144L1876.5000277236752,367.50002164400144"></path><path id="kity_path_106" fill="none" stroke="rgb(115, 161, 191)" stroke-width="1" d="M1028.0000277236752,684.5000216440014A183.5,218,0,0,1,1211.5000277236752,466.50002164400144"></path><path id="kity_path_114" fill="none" stroke="rgb(115, 161, 191)" stroke-width="1" d="M1309.5000277236752,466.50002164400144C1324.5000277236752,466.50002164400144,1324.5000277236752,428.50002164400144,1339.5000277236752,428.50002164400144L1415.5000277236752,428.50002164400144"></path><path id="kity_path_122" fill="none" stroke="rgb(115, 161, 191)" stroke-width="1" d="M1309.5000277236752,466.50002164400144C1324.5000277236752,466.50002164400144,1324.5000277236752,480.50002164400144,1339.5000277236752,480.50002164400144L1478.5000277236752,480.50002164400144"></path><path id="kity_path_130" fill="none" stroke="rgb(115, 161, 191)" stroke-width="1" d="M1309.5000277236752,466.50002164400144C1324.5000277236752,466.50002164400144,1324.5000277236752,532.5000216440014,1339.5000277236752,532.5000216440014L1603.5000277236752,532.5000216440014"></path><path id="kity_path_138" fill="none" stroke="rgb(115, 161, 191)" stroke-width="1" d="M1028.0000277236752,684.5000216440014A183.5,91,0,0,0,1211.5000277236752,775.5000216440014"></path><path id="kity_path_146" fill="none" stroke="rgb(115, 161, 191)" stroke-width="1" d="M1325.5000277236752,775.5000216440014C1340.5000277236752,775.5000216440014,1340.5000277236752,672.5000216440014,1355.5000277236752,672.5000216440014L1421.5000277236752,672.5000216440014"></path><path id="kity_path_154" fill="none" stroke="rgb(115, 161, 191)" stroke-width="1" d="M1421.5000277236752,672.5000216440014C1436.5000277236752,672.5000216440014,1436.5000277236752,672.5000216440014,1451.5000277236752,672.5000216440014L1509.5000277236752,672.5000216440014"></path><path id="kity_path_162" fill="none" stroke="rgb(115, 161, 191)" stroke-width="1" d="M1509.5000277236752,672.5000216440014C1524.5000277236752,672.5000216440014,1524.5000277236752,594.5000216440014,1539.5000277236752,594.5000216440014L1684.5000277236752,594.5000216440014"></path><path id="kity_path_170" fill="none" stroke="rgb(115, 161, 191)" stroke-width="1" d="M1509.5000277236752,672.5000216440014C1524.5000277236752,672.5000216440014,1524.5000277236752,646.5000216440014,1539.5000277236752,646.5000216440014L1713.5000277236752,646.5000216440014"></path><path id="kity_path_178" fill="none" stroke="rgb(115, 161, 191)" stroke-width="1" d="M1509.5000277236752,672.5000216440014C1524.5000277236752,672.5000216440014,1524.5000277236752,698.5000216440014,1539.5000277236752,698.5000216440014L1796.5000277236752,698.5000216440014"></path><path id="kity_path_186" fill="none" stroke="rgb(115, 161, 191)" stroke-width="1" d="M1509.5000277236752,672.5000216440014C1524.5000277236752,672.5000216440014,1524.5000277236752,750.5000216440014,1539.5000277236752,750.5000216440014L1759.5000277236752,750.5000216440014"></path><path id="kity_path_194" fill="none" stroke="rgb(115, 161, 191)" stroke-width="1" d="M1325.5000277236752,775.5000216440014C1340.5000277236752,775.5000216440014,1340.5000277236752,828.5000216440014,1355.5000277236752,828.5000216440014L1427.5000277236752,828.5000216440014"></path><path id="kity_path_202" fill="none" stroke="rgb(115, 161, 191)" stroke-width="1" d="M1427.5000277236752,828.5000216440014C1442.5000277236752,828.5000216440014,1442.5000277236752,802.5000216440014,1457.5000277236752,802.5000216440014L1624.5000277236752,802.5000216440014"></path><path id="kity_path_210" fill="none" stroke="rgb(115, 161, 191)" stroke-width="1" d="M1427.5000277236752,828.5000216440014C1442.5000277236752,828.5000216440014,1442.5000277236752,854.5000216440014,1457.5000277236752,854.5000216440014L1600.5000277236752,854.5000216440014"></path><path id="kity_path_226" fill="none" stroke="rgb(115, 161, 191)" stroke-width="1" d="M1325.5000277236752,775.5000216440014C1340.5000277236752,775.5000216440014,1340.5000277236752,906.5000216440014,1355.5000277236752,906.5000216440014L1400.5000277236752,906.5000216440014"></path><path id="kity_path_234" fill="none" stroke="rgb(115, 161, 191)" stroke-width="1" d="M1028.0000277236752,684.5000216440014A183.5,296,0,0,0,1211.5000277236752,980.5000216440014"></path><path id="kity_path_242" fill="none" stroke="rgb(115, 161, 191)" stroke-width="1" d="M1282.5000277236752,980.5000216440014C1297.5000277236752,980.5000216440014,1297.5000277236752,968.5000216440014,1312.5000277236752,968.5000216440014L1391.5000277236752,968.5000216440014"></path><path id="kity_path_250" fill="none" stroke="rgb(115, 161, 191)" stroke-width="1" d="M1282.5000277236752,980.5000216440014C1297.5000277236752,980.5000216440014,1297.5000277236752,1020.5000216440014,1312.5000277236752,1020.5000216440014L1391.5000277236752,1020.5000216440014"></path><path id="kity_path_258" fill="none" stroke="rgb(115, 161, 191)" stroke-width="1" d="M1028.0000277236752,684.5000216440014A183.5,436,0,0,0,1211.5000277236752,1120.5000216440014"></path><path id="kity_path_266" fill="none" stroke="rgb(115, 161, 191)" stroke-width="1" d="M1295.5000277236752,1120.5000216440014C1310.5000277236752,1120.5000216440014,1310.5000277236752,1134.5000216440014,1325.5000277236752,1134.5000216440014L1400.5000277236752,1134.5000216440014"></path><path id="kity_path_274" fill="none" stroke="rgb(115, 161, 191)" stroke-width="1" d="M1028.0000277236752,684.5000216440014A183.5,576,0,0,0,1211.5000277236752,1260.5000216440014"></path><path id="kity_path_282" fill="none" stroke="rgb(115, 161, 191)" stroke-width="1" d="M1400.5000277236752,1134.5000216440014C1415.5000277236752,1134.5000216440014,1415.5000277236752,1082.5000216440014,1430.5000277236752,1082.5000216440014L1493.5000277236752,1082.5000216440014"></path><path id="kity_path_290" fill="none" stroke="rgb(115, 161, 191)" stroke-width="1" d="M1400.5000277236752,1134.5000216440014C1415.5000277236752,1134.5000216440014,1415.5000277236752,1134.5000216440014,1430.5000277236752,1134.5000216440014L1497.5000277236752,1134.5000216440014"></path><path id="kity_path_298" fill="none" stroke="rgb(115, 161, 191)" stroke-width="1" d="M1400.5000277236752,1134.5000216440014C1415.5000277236752,1134.5000216440014,1415.5000277236752,1186.5000216440014,1430.5000277236752,1186.5000216440014L1508.5000277236752,1186.5000216440014"></path><path id="kity_path_306" fill="none" stroke="rgb(115, 161, 191)" stroke-width="1" d="M1282.5000277236752,1260.5000216440014C1297.5000277236752,1260.5000216440014,1297.5000277236752,1274.5000216440014,1312.5000277236752,1274.5000216440014L1562.5000277236752,1274.5000216440014"></path><path id="kity_path_314" fill="none" stroke="rgb(115, 161, 191)" stroke-width="1" d="M1562.5000277236752,1274.5000216440014C1577.5000277236752,1274.5000216440014,1577.5000277236752,1248.5000216440014,1592.5000277236752,1248.5000216440014L1707.5000277236752,1248.5000216440014"></path><path id="kity_path_322" fill="none" stroke="rgb(115, 161, 191)" stroke-width="1" d="M1562.5000277236752,1274.5000216440014C1577.5000277236752,1274.5000216440014,1577.5000277236752,1300.5000216440014,1592.5000277236752,1300.5000216440014L1658.5000277236752,1300.5000216440014"></path><path id="kity_path_330" fill="none" stroke="rgb(115, 161, 191)" stroke-width="1" d="M1028.0000277236752,684.5000216440014A183.5,361,0,0,0,844.5000277236752,323.50002164400144"></path><path id="kity_path_338" fill="none" stroke="rgb(115, 161, 191)" stroke-width="1" d="M745.5000277236752,323.50002164400144C730.5000277236752,323.50002164400144,730.5000277236752,233.50002164400144,715.5000277236752,233.50002164400144L636.5000277236752,233.50002164400144"></path><path id="kity_path_346" fill="none" stroke="rgb(115, 161, 191)" stroke-width="1" d="M745.5000277236752,323.50002164400144C730.5000277236752,323.50002164400144,730.5000277236752,337.50002164400144,715.5000277236752,337.50002164400144L612.5000277236752,337.50002164400144"></path><path id="kity_path_354" fill="none" stroke="rgb(115, 161, 191)" stroke-width="1" d="M745.5000277236752,323.50002164400144C730.5000277236752,323.50002164400144,730.5000277236752,441.50002164400144,715.5000277236752,441.50002164400144L613.5000277236752,441.50002164400144"></path><path id="kity_path_362" fill="none" stroke="rgb(115, 161, 191)" stroke-width="1" d="M636.5000277236752,233.50002164400144C621.5000277236752,233.50002164400144,621.5000277236752,181.50002164400144,606.5000277236752,181.50002164400144L473.5000277236752,181.50002164400144"></path><path id="kity_path_370" fill="none" stroke="rgb(115, 161, 191)" stroke-width="1" d="M636.5000277236752,233.50002164400144C621.5000277236752,233.50002164400144,621.5000277236752,233.50002164400144,606.5000277236752,233.50002164400144L456.5000277236752,233.50002164400144"></path><path id="kity_path_378" fill="none" stroke="rgb(115, 161, 191)" stroke-width="1" d="M636.5000277236752,233.50002164400144C621.5000277236752,233.50002164400144,621.5000277236752,285.50002164400144,606.5000277236752,285.50002164400144L484.5000277236752,285.50002164400144"></path><path id="kity_path_386" fill="none" stroke="rgb(115, 161, 191)" stroke-width="1" d="M612.5000277236752,337.50002164400144C597.5000277236752,337.50002164400144,597.5000277236752,337.50002164400144,582.5000277236752,337.50002164400144L426.5000277236752,337.50002164400144"></path><path id="kity_path_394" fill="none" stroke="rgb(115, 161, 191)" stroke-width="1" d="M613.5000277236752,441.50002164400144C598.5000277236752,441.50002164400144,598.5000277236752,389.50002164400144,583.5000277236752,389.50002164400144L451.5000277236752,389.50002164400144"></path><path id="kity_path_402" fill="none" stroke="rgb(115, 161, 191)" stroke-width="1" d="M613.5000277236752,441.50002164400144C598.5000277236752,441.50002164400144,598.5000277236752,441.50002164400144,583.5000277236752,441.50002164400144L439.5000277236752,441.50002164400144"></path><path id="kity_path_410" fill="none" stroke="rgb(115, 161, 191)" stroke-width="1" d="M613.5000277236752,441.50002164400144C598.5000277236752,441.50002164400144,598.5000277236752,493.50002164400144,583.5000277236752,493.50002164400144L448.5000277236752,493.50002164400144"></path><path id="kity_path_418" fill="none" stroke="rgb(115, 161, 191)" stroke-width="1" d="M1028.0000277236752,684.5000216440014A183.5,141,0,0,0,844.5000277236752,543.5000216440014"></path><path id="kity_path_426" fill="none" stroke="rgb(115, 161, 191)" stroke-width="1" d="M716.5000277236752,543.5000216440014C701.5000277236752,543.5000216440014,701.5000277236752,557.5000216440014,686.5000277236752,557.5000216440014L606.5000277236752,557.5000216440014"></path><path id="kity_path_442" fill="none" stroke="rgb(115, 161, 191)" stroke-width="1" d="M606.5000277236752,557.5000216440014C591.5000277236752,557.5000216440014,591.5000277236752,557.5000216440014,576.5000277236752,557.5000216440014L357.5000277236752,557.5000216440014"></path><path id="kity_path_450" fill="none" stroke="rgb(115, 161, 191)" stroke-width="1" d="M357.5000277236752,557.5000216440014C404.5000277236752,557.5000216440014,404.5000277236752,627.5000216440014,451.5000277236752,627.5000216440014L294.5000277236752,627.5000216440014"></path><path id="kity_path_466" fill="none" stroke="rgb(115, 161, 191)" stroke-width="1" d="M294.5000277236752,627.5000216440014C332.5000277236752,627.5000216440014,332.5000277236752,701.5000216440014,370.5000277236752,701.5000216440014L177.5000277236752,701.5000216440014"></path><path id="kity_path_468" fill="none" stroke="rgb(115, 161, 191)" stroke-width="1" d="M177.5000277236752,701.5000216440014C236.0000277236752,701.5000216440014,236.0000277236752,767.5000216440014,294.5000277236752,767.5000216440014L147.5000277236752,767.5000216440014"></path><path id="kity_path_476" fill="none" stroke="rgb(115, 161, 191)" stroke-width="1" d="M147.5000277236752,767.5000216440014C180.0000277236752,767.5000216440014,180.0000277236752,857.5000216440014,212.5000277236752,857.5000216440014L108.5000277236752,857.5000216440014"></path><path id="kity_path_484" fill="none" stroke="rgb(115, 161, 191)" stroke-width="1" d="M108.5000277236752,857.5000216440014C174.0000277236752,857.5000216440014,174.0000277236752,953.5000216440014,239.5000277236752,953.5000216440014L56.5000277236752,953.5000216440014"></path><path id="kity_path_492" fill="none" stroke="rgb(115, 161, 191)" stroke-width="1" d="M56.5000277236752,953.5000216440014C106.5000277236752,953.5000216440014,106.5000277236752,1045.5000216440014,156.5000277236752,1045.5000216440014L19.500027723675203,1045.5000216440014"></path><path id="kity_path_500" fill="none" stroke="rgb(115, 161, 191)" stroke-width="1" d="M146.5000277236752,1045.5000216440014C95.5000277236752,1045.5000216440014,95.5000277236752,1118.5000216440014,44.5000277236752,1118.5000216440014L124.5000277236752,1118.5000216440014"></path><path id="kity_path_508" fill="none" stroke="rgb(115, 161, 191)" stroke-width="1" d="M124.5000277236752,1118.5000216440014C115.0000277236752,1118.5000216440014,115.0000277236752,1183.5000216440014,105.5000277236752,1183.5000216440014L188.5000277236752,1183.5000216440014"></path><path id="kity_path_516" fill="none" stroke="rgb(115, 161, 191)" stroke-width="1" d="M188.5000277236752,1183.5000216440014C155.0000277236752,1183.5000216440014,155.0000277236752,1269.5000216440014,121.5000277236752,1269.5000216440014L203.5000277236752,1269.5000216440014"></path><path id="kity_path_524" fill="none" stroke="rgb(115, 161, 191)" stroke-width="1" d="M203.5000277236752,1269.5000216440014C172.5000277236752,1269.5000216440014,172.5000277236752,1355.5000216440014,141.5000277236752,1355.5000216440014L370.5000277236752,1355.5000216440014"></path><path id="kity_path_532" fill="none" stroke="rgb(115, 161, 191)" stroke-width="1" d="M1028.0000277236752,684.5000216440014A183.5,75,0,0,0,844.5000277236752,609.5000216440014"></path><path id="kity_path_540" fill="none" stroke="rgb(115, 161, 191)" stroke-width="1" d="M1028.0000277236752,684.5000216440014A183.5,9,0,0,0,844.5000277236752,675.5000216440014"></path><path id="kity_path_548" fill="none" stroke="rgb(115, 161, 191)" stroke-width="1" d="M1028.0000277236752,684.5000216440014A183.5,81,0,0,1,844.5000277236752,765.5000216440014"></path><path id="kity_path_556" fill="none" stroke="rgb(115, 161, 191)" stroke-width="1" d="M744.5000277236752,765.5000216440014C729.5000277236752,765.5000216440014,729.5000277236752,753.5000216440014,714.5000277236752,753.5000216440014L580.5000277236752,753.5000216440014"></path><path id="kity_path_564" fill="none" stroke="rgb(115, 161, 191)" stroke-width="1" d="M744.5000277236752,765.5000216440014C729.5000277236752,765.5000216440014,729.5000277236752,805.5000216440014,714.5000277236752,805.5000216440014L509.5000277236752,805.5000216440014"></path><path id="kity_path_572" fill="none" stroke="rgb(115, 161, 191)" stroke-width="1" d="M1028.0000277236752,684.5000216440014A183.5,221,0,0,1,844.5000277236752,905.5000216440014"></path><path id="kity_path_580" fill="none" stroke="rgb(115, 161, 191)" stroke-width="1" d="M773.5000277236752,905.5000216440014C758.5000277236752,905.5000216440014,758.5000277236752,867.5000216440014,743.5000277236752,867.5000216440014L614.5000277236752,867.5000216440014"></path><path id="kity_path_588" fill="none" stroke="rgb(115, 161, 191)" stroke-width="1" d="M773.5000277236752,905.5000216440014C758.5000277236752,905.5000216440014,758.5000277236752,919.5000216440014,743.5000277236752,919.5000216440014L546.5000277236752,919.5000216440014"></path><path id="kity_path_596" fill="none" stroke="rgb(115, 161, 191)" stroke-width="1" d="M773.5000277236752,905.5000216440014C758.5000277236752,905.5000216440014,758.5000277236752,971.5000216440014,743.5000277236752,971.5000216440014L665.5000277236752,971.5000216440014"></path><path id="kity_path_604" fill="none" stroke="rgb(115, 161, 191)" stroke-width="1" d="M1028.0000277236752,684.5000216440014A183.5,361,0,0,1,844.5000277236752,1045.5000216440014"></path><path id="kity_path_612" fill="none" stroke="rgb(115, 161, 191)" stroke-width="1" d="M730.5000277236752,1045.5000216440014C715.5000277236752,1045.5000216440014,715.5000277236752,1033.5000216440014,700.5000277236752,1033.5000216440014L630.5000277236752,1033.5000216440014"></path><path id="kity_path_620" fill="none" stroke="rgb(115, 161, 191)" stroke-width="1" d="M730.5000277236752,1045.5000216440014C715.5000277236752,1045.5000216440014,715.5000277236752,1085.5000216440014,700.5000277236752,1085.5000216440014L629.5000277236752,1085.5000216440014"></path></g><g id="minder_node1"><path id="node_outline1" fill="rgb(115, 161, 191)" stroke="rgb(115, 161, 191)" d="M967.5000277236752,664.5000216440014h121a5,5,0,0,1,5,5v30a5,5,0,0,1,-5,5h-121a5,5,0,0,1,-5,-5v-30a5,5,0,0,1,5,-5z" stroke-width="3"></path><g id="node_text1" fill="white"><text id="kity_text_22" text-rendering="inherit" font-size="16" dy=".8em" y="674.1000215664635" x="986.5000277236752">vue-router</text></g></g><g id="kity_g_14" display="none"><path id="kity_path_15" fill="rgba(0, 92, 153, 0.5)" stroke="none" d="M496.5000277236752,993.5000216440014h70v15h-70z"></path><path id="kity_path_16" fill="none" stroke="rgb(0, 76, 128)" d="M496.5000277236752,1008.5000216440014L566.5000277236752,1008.5000216440014" stroke-width="1"></path></g><g id="minder_node2"><g id="node_expander5" style="cursor: pointer;"><path id="kity_path_91" fill="white" stroke="gray" d="M1212.5000311340973,108.50001298629775A6,6,0,1,1,1200.5000311340973,108.50001298629775A6,6,0,1,1,1212.5000311340973,108.50001298629775"></path><path id="kity_path_92" fill="none" stroke="gray" d="M1202.0000311340973,108.50001298629775L1211.0000311340973,108.50001298629775"></path></g><path id="node_outline6" fill="rgb(238, 243, 246)" stroke="rgb(115, 161, 191)" d="M1216.500031436267,95.50001298629775h63a3,3,0,0,1,3,3v20a3,3,0,0,1,-3,3h-63a3,3,0,0,1,-3,-3v-20a3,3,0,0,1,3,-3z" stroke-width="1"></path><g id="node_text6" fill="black"><text id="kity_text_57" text-rendering="inherit" font-size="14" dy=".8em" y="99.40001315168769" x="1233.500031436267">使用</text></g></g><g id="minder_node3"><g id="node_expander1" style="cursor: pointer;" display="none"><path id="kity_path_79" fill="white" stroke="gray" d="M1322.500032683818,30.500011813900407A6,6,0,1,1,1310.500032683818,30.500011813900407A6,6,0,1,1,1322.500032683818,30.500011813900407"></path><path id="kity_path_80" fill="none" stroke="gray"></path></g><path id="node_outline2" fill="none" stroke="none" d="M1327.5000329243098,19.500011813900414h215a5,5,0,0,1,5,5v12a5,5,0,0,1,-5,5h-215a5,5,0,0,1,-5,-5v-12a5,5,0,0,1,5,-5z"></path><g id="node_text2" fill="black"><text id="kity_text_49" text-rendering="inherit" font-size="12" dy=".8em" y="22.700011807577134" x="1332.5000329243098">import&#xa0;VueRouter from 'vue-router'</text></g></g><g id="minder_node4"><g id="node_expander2" style="cursor: pointer;" display="none"><path id="kity_path_82" fill="white" stroke="gray" d="M1322.500032683818,82.50001259549845A6,6,0,1,1,1310.500032683818,82.50001259549845A6,6,0,1,1,1322.500032683818,82.50001259549845"></path><path id="kity_path_83" fill="none" stroke="gray"></path></g><path id="node_outline3" fill="none" stroke="none" d="M1327.5000329243098,71.50001259549845h128a5,5,0,0,1,5,5v12a5,5,0,0,1,-5,5h-128a5,5,0,0,1,-5,-5v-12a5,5,0,0,1,5,-5z"></path><g id="node_text3" fill="black"><text id="kity_text_51" text-rendering="inherit" font-size="12" dy=".8em" y="74.70001258917517" x="1332.5000329243098">Vue.use(VueRouter )</text></g></g><g id="minder_node5"><g id="node_expander3" style="cursor: pointer;" display="none"><path id="kity_path_85" fill="white" stroke="gray" d="M1322.500032683818,134.50001337709693A6,6,0,1,1,1310.500032683818,134.50001337709693A6,6,0,1,1,1322.500032683818,134.50001337709693"></path><path id="kity_path_86" fill="none" stroke="gray"></path></g><path id="node_outline4" fill="none" stroke="none" d="M1327.5000329243098,123.50001337709693h180a5,5,0,0,1,5,5v12a5,5,0,0,1,-5,5h-180a5,5,0,0,1,-5,-5v-12a5,5,0,0,1,5,-5z"></path><g id="node_text4" fill="black"><text id="kity_text_53" text-rendering="inherit" font-size="12" dy=".8em" y="126.70001337077366" x="1332.5000329243098">router = new Router({routes})</text></g></g><g id="minder_node6"><g id="node_expander4" style="cursor: pointer;" display="none"><path id="kity_path_88" fill="white" stroke="gray" d="M1322.500032683818,186.50001415869508A6,6,0,1,1,1310.500032683818,186.50001415869508A6,6,0,1,1,1322.500032683818,186.50001415869508"></path><path id="kity_path_89" fill="none" stroke="gray"></path></g><path id="node_outline5" fill="none" stroke="none" d="M1327.5000329243098,175.50001415869508h111a5,5,0,0,1,5,5v12a5,5,0,0,1,-5,5h-111a5,5,0,0,1,-5,-5v-12a5,5,0,0,1,5,-5z"></path><g id="node_text5" fill="black"><text id="kity_text_55" text-rendering="inherit" font-size="12" dy=".8em" y="178.7000141523718" x="1332.5000329243098">new Vue({router})</text></g></g><g id="minder_node7"><g id="node_expander9" style="cursor: pointer;"><path id="kity_path_103" fill="white" stroke="gray" d="M1212.5000311340973,301.0000158797143A6,6,0,1,1,1200.5000311340973,301.0000158797143A6,6,0,1,1,1212.5000311340973,301.0000158797143"></path><path id="kity_path_104" fill="none" stroke="gray" d="M1202.0000311340973,301.0000158797143L1211.0000311340973,301.0000158797143"></path></g><path id="node_outline10" fill="rgb(238, 243, 246)" stroke="rgb(115, 161, 191)" d="M1216.500031436267,286.5000158721989h140a3,3,0,0,1,3,3v23a3,3,0,0,1,-3,3h-140a3,3,0,0,1,-3,-3v-23a3,3,0,0,1,3,-3z" stroke-width="1"></path><g id="node_text10" fill="black"><text id="kity_text_65" text-rendering="inherit" font-size="14" dy=".8em" y="291.40001603758884" x="1233.500031436267">动态路由匹配</text></g><g id="kity_g_66" style="cursor: pointer;"><path id="kity_path_67" fill="none" stroke="none" d="M1326.0000346549177,292.0000158721989h12a2,2,0,0,1,2,2v13a2,2,0,0,1,-2,2h-12a2,2,0,0,1,-2,-2v-13a2,2,0,0,1,2,-2z"></path><path id="kity_path_68" fill="black" stroke="none" d="M1335.0000347443247,303.000015722669H1329.0000347443247V302.000015722669h6L1335.0000347443247,303.000015722669L1335.0000347443247,303.000015722669zM1335.0000347443247,301.000015722669H1329.0000347443247V300.000015722669h6V301.000015722669zM1335.0000347443247,299.000015722669H1329.0000347443247V298.000015722669h6V299.000015722669zM1334.5000347443247,305.000015722669H1328.0000347443247V296.000015722669h8v7.5M1335.0000347443247,306.000015722669l2,-2V295.000015722669H1327.0000347443247v11"></path></g></g><g id="minder_node8"><g id="node_expander6" style="cursor: pointer;" display="none"><path id="kity_path_94" fill="white" stroke="gray" d="M1399.5000338411846,249.5000151056314A6,6,0,1,1,1387.5000338411846,249.5000151056314A6,6,0,1,1,1399.5000338411846,249.5000151056314"></path><path id="kity_path_95" fill="none" stroke="gray"></path></g><path id="node_outline7" fill="none" stroke="none" d="M1404.5000340816764,238.5000151056314h217a5,5,0,0,1,5,5v12a5,5,0,0,1,-5,5h-217a5,5,0,0,1,-5,-5v-12a5,5,0,0,1,5,-5z"></path><g id="node_text7" fill="black"><text id="kity_text_59" text-rendering="inherit" font-size="12" dy=".8em" y="241.70001509930813" x="1409.5000340816764"> { path: '/user/:id', component: User }</text></g></g><g id="minder_node9"><g id="node_expander7" style="cursor: pointer;" display="none"><path id="kity_path_97" fill="white" stroke="gray" d="M1399.5000338411846,301.50001588722967A6,6,0,1,1,1387.5000338411846,301.50001588722967A6,6,0,1,1,1399.5000338411846,301.50001588722967"></path><path id="kity_path_98" fill="none" stroke="gray"></path></g><path id="node_outline8" fill="none" stroke="none" d="M1404.5000340816764,290.50001588722967h138a5,5,0,0,1,5,5v12a5,5,0,0,1,-5,5h-138a5,5,0,0,1,-5,-5v-12a5,5,0,0,1,5,-5z"></path><g id="node_text8" fill="black"><text id="kity_text_61" text-rendering="inherit" font-size="12" dy=".8em" y="293.7000158809064" x="1409.5000340816764">/user/foo 和 /user/bar</text></g></g><g id="minder_node10"><g id="node_expander8" style="cursor: pointer;" display="none"><path id="kity_path_100" fill="white" stroke="gray" d="M1399.5000338411846,353.5000166688279A6,6,0,1,1,1387.5000338411846,353.5000166688279A6,6,0,1,1,1399.5000338411846,353.5000166688279"></path><path id="kity_path_101" fill="none" stroke="gray"></path></g><path id="node_outline9" fill="none" stroke="none" d="M1404.5000340816764,342.5000166688279h467a5,5,0,0,1,5,5v12a5,5,0,0,1,-5,5h-467a5,5,0,0,1,-5,-5v-12a5,5,0,0,1,5,-5z" stroke-width="3"></path><g id="node_text9" fill="black"><text id="kity_text_63" text-rendering="inherit" font-size="12" dy=".8em" y="345.70001666250465" x="1409.5000340816764">不会销毁相关路由组件，也就是以为着切换时不会触发created，mounted等相关方法</text></g></g><g id="minder_node11"><g id="node_expander10" style="cursor: pointer;"><path id="kity_path_111" fill="white" stroke="gray" d="M1212.5000311340973,466.500018367301A6,6,0,1,1,1200.5000311340973,466.500018367301A6,6,0,1,1,1212.5000311340973,466.500018367301"></path><path id="kity_path_112" fill="none" stroke="gray" d="M1202.0000311340973,466.500018367301L1211.0000311340973,466.500018367301"></path></g><path id="node_outline11" fill="rgb(238, 243, 246)" stroke="rgb(115, 161, 191)" d="M1216.500031436267,453.500018367301h90a3,3,0,0,1,3,3v20a3,3,0,0,1,-3,3h-90a3,3,0,0,1,-3,-3v-20a3,3,0,0,1,3,-3z" stroke-width="1"></path><g id="node_text11" fill="black"><text id="kity_text_108" text-rendering="inherit" font-size="14" dy=".8em" y="457.4000185326909" x="1233.500031436267">嵌套路由</text></g></g><g id="minder_node12"><g id="node_expander11" style="cursor: pointer;" display="none"><path id="kity_path_119" fill="white" stroke="gray" d="M1349.5000330896478,414.5000175857028A6,6,0,1,1,1337.5000330896478,414.5000175857028A6,6,0,1,1,1349.5000330896478,414.5000175857028"></path><path id="kity_path_120" fill="none" stroke="gray"></path></g><path id="node_outline12" fill="none" stroke="none" d="M1354.5000333301396,403.5000175857028h56a5,5,0,0,1,5,5v12a5,5,0,0,1,-5,5h-56a5,5,0,0,1,-5,-5v-12a5,5,0,0,1,5,-5z" stroke-width="3"></path><g id="node_text12" fill="black"><text id="kity_text_116" text-rendering="inherit" font-size="12" dy=".8em" y="406.7000175793795" x="1359.5000333301396">children</text></g></g><g id="minder_node13"><g id="node_expander12" style="cursor: pointer;" display="none"><path id="kity_path_127" fill="white" stroke="gray" d="M1349.5000330896478,466.500018367301A6,6,0,1,1,1337.5000330896478,466.500018367301A6,6,0,1,1,1349.5000330896478,466.500018367301"></path><path id="kity_path_128" fill="none" stroke="gray"></path></g><path id="node_outline13" fill="none" stroke="none" d="M1354.5000333301396,455.500018367301h119a5,5,0,0,1,5,5v12a5,5,0,0,1,-5,5h-119a5,5,0,0,1,-5,-5v-12a5,5,0,0,1,5,-5z" stroke-width="3"></path><g id="node_text13" fill="black"><text id="kity_text_124" text-rendering="inherit" font-size="12" dy=".8em" y="458.7000183609777" x="1359.5000333301396">子路由不用写全地址</text></g></g><g id="minder_node14"><g id="node_expander13" style="cursor: pointer;" display="none"><path id="kity_path_135" fill="white" stroke="gray" d="M1349.5000330896478,518.5000191488994A6,6,0,1,1,1337.5000330896478,518.5000191488994A6,6,0,1,1,1349.5000330896478,518.5000191488994"></path><path id="kity_path_136" fill="none" stroke="gray"></path></g><path id="node_outline14" fill="none" stroke="none" d="M1354.5000333301396,507.50001914889936h244a5,5,0,0,1,5,5v12a5,5,0,0,1,-5,5h-244a5,5,0,0,1,-5,-5v-12a5,5,0,0,1,5,-5z" stroke-width="3"></path><g id="node_text14" fill="black"><text id="kity_text_132" text-rendering="inherit" font-size="12" dy=".8em" y="510.700019142576" x="1359.5000333301396">含children的组件中需要有router-view组件</text></g></g><g id="minder_node15"><g id="node_expander14" style="cursor: pointer;"><path id="kity_path_143" fill="white" stroke="gray" d="M1212.5000311340973,775.5000230117984A6,6,0,1,1,1200.5000311340973,775.5000230117984A6,6,0,1,1,1212.5000311340973,775.5000230117984"></path><path id="kity_path_144" fill="none" stroke="gray" d="M1202.0000311340973,775.5000230117984L1211.0000311340973,775.5000230117984"></path></g><path id="node_outline15" fill="rgb(238, 243, 246)" stroke="rgb(115, 161, 191)" d="M1216.500031436267,762.5000230117984h106a3,3,0,0,1,3,3v20a3,3,0,0,1,-3,3h-106a3,3,0,0,1,-3,-3v-20a3,3,0,0,1,3,-3z" stroke-width="1"></path><g id="node_text15" fill="black"><text id="kity_text_140" text-rendering="inherit" font-size="14" dy=".8em" y="766.4000231771882" x="1233.500031436267">编程式导航</text></g></g><g id="minder_node16"><g id="node_expander15" style="cursor: pointer;"><path id="kity_path_151" fill="white" stroke="gray" d="M1365.5000333301396,658.5000212532022A6,6,0,1,1,1353.5000333301396,658.5000212532022A6,6,0,1,1,1365.5000333301396,658.5000212532022"></path><path id="kity_path_152" fill="none" stroke="gray" d="M1355.0000333301396,658.5000212532022L1364.0000333301396,658.5000212532022"></path></g><path id="node_outline16" fill="none" stroke="none" d="M1370.5000335706313,647.5000212532022h46a5,5,0,0,1,5,5v12a5,5,0,0,1,-5,5h-46a5,5,0,0,1,-5,-5v-12a5,5,0,0,1,5,-5z" stroke-width="3"></path><g id="node_text16" fill="black"><text id="kity_text_148" text-rendering="inherit" font-size="12" dy=".8em" y="650.7000212468789" x="1375.5000335706313">router</text></g></g><g id="minder_node17"><g id="node_expander16" style="cursor: pointer;"><path id="kity_path_159" fill="white" stroke="gray" d="M1461.5000347730902,658.5000212532022A6,6,0,1,1,1449.5000347730902,658.5000212532022A6,6,0,1,1,1461.5000347730902,658.5000212532022"></path><path id="kity_path_160" fill="none" stroke="gray" d="M1451.0000347730902,658.5000212532022L1460.0000347730902,658.5000212532022"></path></g><path id="node_outline17" fill="none" stroke="none" d="M1466.500035013582,647.5000212532022h38a5,5,0,0,1,5,5v12a5,5,0,0,1,-5,5h-38a5,5,0,0,1,-5,-5v-12a5,5,0,0,1,5,-5z" stroke-width="3"></path><g id="node_text17" fill="black"><text id="kity_text_156" text-rendering="inherit" font-size="12" dy=".8em" y="650.7000212468789" x="1471.500035013582">push</text></g></g><g id="minder_node18"><g id="node_expander17" style="cursor: pointer;" display="none"><path id="kity_path_167" fill="white" stroke="gray" d="M1549.5000360957952,580.5000200808049A6,6,0,1,1,1537.5000360957952,580.5000200808049A6,6,0,1,1,1549.5000360957952,580.5000200808049"></path><path id="kity_path_168" fill="none" stroke="gray"></path></g><path id="node_outline18" fill="none" stroke="none" d="M1554.500036336287,569.5000200808049h125a5,5,0,0,1,5,5v12a5,5,0,0,1,-5,5h-125a5,5,0,0,1,-5,-5v-12a5,5,0,0,1,5,-5z" stroke-width="3"></path><g id="node_text18" fill="black"><text id="kity_text_164" text-rendering="inherit" font-size="12" dy=".8em" y="572.7000200744816" x="1559.500036336287">字符串 push('home')</text></g></g><g id="minder_node19"><g id="node_expander18" style="cursor: pointer;" display="none"><path id="kity_path_175" fill="white" stroke="gray" d="M1549.5000360957952,632.5000208624032A6,6,0,1,1,1537.5000360957952,632.5000208624032A6,6,0,1,1,1549.5000360957952,632.5000208624032"></path><path id="kity_path_176" fill="none" stroke="gray"></path></g><path id="node_outline19" fill="none" stroke="none" d="M1554.500036336287,621.5000208624032h154a5,5,0,0,1,5,5v12a5,5,0,0,1,-5,5h-154a5,5,0,0,1,-5,-5v-12a5,5,0,0,1,5,-5z" stroke-width="3"></path><g id="node_text19" fill="black"><text id="kity_text_172" text-rendering="inherit" font-size="12" dy=".8em" y="624.7000208560798" x="1559.500036336287">对象 push({path: 'home'})</text></g></g><g id="minder_node20"><g id="node_expander19" style="cursor: pointer;" display="none"><path id="kity_path_183" fill="white" stroke="gray" d="M1549.5000360957952,684.5000216440014A6,6,0,1,1,1537.5000360957952,684.5000216440014A6,6,0,1,1,1549.5000360957952,684.5000216440014"></path><path id="kity_path_184" fill="none" stroke="gray"></path></g><path id="node_outline20" fill="none" stroke="none" d="M1554.500036336287,673.5000216440014h237a5,5,0,0,1,5,5v12a5,5,0,0,1,-5,5h-237a5,5,0,0,1,-5,-5v-12a5,5,0,0,1,5,-5z" stroke-width="3"></path><g id="node_text20" fill="black"><text id="kity_text_180" text-rendering="inherit" font-size="12" dy=".8em" y="676.7000216376781" x="1559.500036336287">命名路由push({name: 'home',params:{}})</text></g></g><g id="minder_node21"><g id="node_expander20" style="cursor: pointer;" display="none"><path id="kity_path_191" fill="white" stroke="gray" d="M1549.5000360957952,736.5000224255997A6,6,0,1,1,1537.5000360957952,736.5000224255997A6,6,0,1,1,1549.5000360957952,736.5000224255997"></path><path id="kity_path_192" fill="none" stroke="gray"></path></g><path id="node_outline21" fill="none" stroke="none" d="M1554.500036336287,725.5000224255997h200a5,5,0,0,1,5,5v12a5,5,0,0,1,-5,5h-200a5,5,0,0,1,-5,-5v-12a5,5,0,0,1,5,-5z" stroke-width="3"></path><g id="node_text21" fill="black"><text id="kity_text_188" text-rendering="inherit" font-size="12" dy=".8em" y="728.7000224192764" x="1559.500036336287">如果提供了path，params会被忽略</text></g></g><g id="minder_node22"><g id="node_expander21" style="cursor: pointer;"><path id="kity_path_199" fill="white" stroke="gray" d="M1365.5000333301396,814.5000235979971A6,6,0,1,1,1353.5000333301396,814.5000235979971A6,6,0,1,1,1365.5000333301396,814.5000235979971"></path><path id="kity_path_200" fill="none" stroke="gray" d="M1355.0000333301396,814.5000235979971L1364.0000333301396,814.5000235979971"></path></g><path id="node_outline22" fill="none" stroke="none" d="M1370.5000335706313,803.5000235979971h52a5,5,0,0,1,5,5v12a5,5,0,0,1,-5,5h-52a5,5,0,0,1,-5,-5v-12a5,5,0,0,1,5,-5z" stroke-width="3"></path><g id="node_text22" fill="black"><text id="kity_text_196" text-rendering="inherit" font-size="12" dy=".8em" y="806.7000235916738" x="1375.5000335706313">replace</text></g></g><g id="minder_node23"><g id="node_expander22" style="cursor: pointer;" display="none"><path id="kity_path_207" fill="white" stroke="gray" d="M1467.5000348632748,788.500023207198A6,6,0,1,1,1455.5000348632748,788.500023207198A6,6,0,1,1,1467.5000348632748,788.500023207198"></path><path id="kity_path_208" fill="none" stroke="gray"></path></g><path id="node_outline23" fill="none" stroke="none" d="M1472.5000351037665,777.500023207198h147a5,5,0,0,1,5,5v12a5,5,0,0,1,-5,5h-147a5,5,0,0,1,-5,-5v-12a5,5,0,0,1,5,-5z" stroke-width="3"></path><g id="node_text23" fill="black"><text id="kity_text_204" text-rendering="inherit" font-size="12" dy=".8em" y="780.7000232008746" x="1477.5000351037665">不会向history添加新记录</text></g></g><g id="minder_node24"><g id="node_expander23" style="cursor: pointer;" display="none"><path id="kity_path_215" fill="white" stroke="gray" d="M1467.5000348632748,840.5000239887962A6,6,0,1,1,1455.5000348632748,840.5000239887962A6,6,0,1,1,1467.5000348632748,840.5000239887962"></path><path id="kity_path_216" fill="none" stroke="gray"></path></g><path id="node_outline24" fill="none" stroke="none" d="M1472.5000351037665,829.5000239887962h123a5,5,0,0,1,5,5v12a5,5,0,0,1,-5,5h-123a5,5,0,0,1,-5,-5v-12a5,5,0,0,1,5,-5z" stroke-width="3"></path><g id="node_text24" fill="black"><text id="kity_text_212" text-rendering="inherit" font-size="12" dy=".8em" y="832.7000239824729" x="1477.5000351037665">替换当前history记录</text></g></g><g id="minder_node26"><g id="node_expander25" style="cursor: pointer;" display="none"><path id="kity_path_231" fill="white" stroke="gray" d="M1365.5000333301396,892.5000247703945A6,6,0,1,1,1353.5000333301396,892.5000247703945A6,6,0,1,1,1365.5000333301396,892.5000247703945"></path><path id="kity_path_232" fill="none" stroke="gray"></path></g><path id="node_outline26" fill="none" stroke="none" d="M1370.5000335706313,881.5000247703945h25a5,5,0,0,1,5,5v12a5,5,0,0,1,-5,5h-25a5,5,0,0,1,-5,-5v-12a5,5,0,0,1,5,-5z" stroke-width="3"></path><g id="node_text26" fill="black"><text id="kity_text_228" text-rendering="inherit" font-size="12" dy=".8em" y="884.7000247640711" x="1375.5000335706313">go</text></g></g><g id="minder_node27"><g id="node_expander26" style="cursor: pointer;"><path id="kity_path_239" fill="white" stroke="gray" d="M1212.5000311340973,980.5000260930992A6,6,0,1,1,1200.5000311340973,980.5000260930992A6,6,0,1,1,1212.5000311340973,980.5000260930992"></path><path id="kity_path_240" fill="none" stroke="gray" d="M1202.0000311340973,980.5000260930992L1211.0000311340973,980.5000260930992"></path></g><path id="node_outline27" fill="rgb(238, 243, 246)" stroke="rgb(115, 161, 191)" d="M1216.500031436267,967.5000260930992h63a3,3,0,0,1,3,3v20a3,3,0,0,1,-3,3h-63a3,3,0,0,1,-3,-3v-20a3,3,0,0,1,3,-3z" stroke-width="1"></path><g id="node_text27" fill="black"><text id="kity_text_236" text-rendering="inherit" font-size="14" dy=".8em" y="971.4000262584891" x="1233.500031436267">命名</text></g></g><g id="minder_node28"><g id="node_expander27" style="cursor: pointer;" display="none"><path id="kity_path_247" fill="white" stroke="gray" d="M1322.500032683818,954.5000257023A6,6,0,1,1,1310.500032683818,954.5000257023A6,6,0,1,1,1322.500032683818,954.5000257023"></path><path id="kity_path_248" fill="none" stroke="gray"></path></g><path id="node_outline28" fill="none" stroke="none" d="M1327.5000329243098,943.5000257023h59a5,5,0,0,1,5,5v12a5,5,0,0,1,-5,5h-59a5,5,0,0,1,-5,-5v-12a5,5,0,0,1,5,-5z" stroke-width="3"></path><g id="node_text28" fill="black"><text id="kity_text_244" text-rendering="inherit" font-size="12" dy=".8em" y="946.7000256959767" x="1332.5000329243098">命名路由</text></g></g><g id="minder_node29"><g id="node_expander28" style="cursor: pointer;" display="none"><path id="kity_path_255" fill="white" stroke="gray" d="M1322.500032683818,1006.5000264838984A6,6,0,1,1,1310.500032683818,1006.5000264838984A6,6,0,1,1,1322.500032683818,1006.5000264838984"></path><path id="kity_path_256" fill="none" stroke="gray"></path></g><path id="node_outline29" fill="none" stroke="none" d="M1327.5000329243098,995.5000264838984h59a5,5,0,0,1,5,5v12a5,5,0,0,1,-5,5h-59a5,5,0,0,1,-5,-5v-12a5,5,0,0,1,5,-5z" stroke-width="3"></path><g id="node_text29" fill="black"><text id="kity_text_252" text-rendering="inherit" font-size="12" dy=".8em" y="998.7000264775751" x="1332.5000329243098">命名视图</text></g></g><g id="minder_node30"><g id="node_expander29" style="cursor: pointer;"><path id="kity_path_263" fill="white" stroke="gray" d="M1212.5000311340973,1120.5000281974021A6,6,0,1,1,1200.5000311340973,1120.5000281974021A6,6,0,1,1,1212.5000311340973,1120.5000281974021"></path><path id="kity_path_264" fill="none" stroke="gray" d="M1202.0000311340973,1120.5000281974021L1211.0000311340973,1120.5000281974021"></path></g><path id="node_outline30" fill="rgb(238, 243, 246)" stroke="rgb(115, 161, 191)" d="M1216.500031436267,1107.5000281974021h76a3,3,0,0,1,3,3v20a3,3,0,0,1,-3,3h-76a3,3,0,0,1,-3,-3v-20a3,3,0,0,1,3,-3z" stroke-width="1"></path><g id="node_text30" fill="black"><text id="kity_text_260" text-rendering="inherit" font-size="14" dy=".8em" y="1111.400028362792" x="1233.500031436267">重定向</text></g></g><g id="minder_node31"><g id="node_expander30" style="cursor: pointer;"><path id="kity_path_271" fill="white" stroke="gray" d="M1335.5000328792175,1120.5000281974021A6,6,0,1,1,1323.5000328792175,1120.5000281974021A6,6,0,1,1,1335.5000328792175,1120.5000281974021"></path><path id="kity_path_272" fill="none" stroke="gray" d="M1325.0000328792175,1120.5000281974021L1334.0000328792175,1120.5000281974021"></path></g><path id="node_outline31" fill="none" stroke="none" d="M1340.5000331197093,1109.5000281974021h55a5,5,0,0,1,5,5v12a5,5,0,0,1,-5,5h-55a5,5,0,0,1,-5,-5v-12a5,5,0,0,1,5,-5z" stroke-width="3"></path><g id="node_text31" fill="black"><text id="kity_text_268" text-rendering="inherit" font-size="12" dy=".8em" y="1112.700028191079" x="1345.5000331197093">redirect</text></g></g><g id="minder_node32"><g id="node_expander31" style="cursor: pointer;"><path id="kity_path_279" fill="white" stroke="gray" d="M1212.5000311340973,1260.5000303017052A6,6,0,1,1,1200.5000311340973,1260.5000303017052A6,6,0,1,1,1212.5000311340973,1260.5000303017052"></path><path id="kity_path_280" fill="none" stroke="gray" d="M1202.0000311340973,1260.5000303017052L1211.0000311340973,1260.5000303017052"></path></g><path id="node_outline32" fill="rgb(238, 243, 246)" stroke="rgb(115, 161, 191)" d="M1216.500031436267,1247.5000303017052h63a3,3,0,0,1,3,3v20a3,3,0,0,1,-3,3h-63a3,3,0,0,1,-3,-3v-20a3,3,0,0,1,3,-3z" stroke-width="1"></path><g id="node_text32" fill="black"><text id="kity_text_276" text-rendering="inherit" font-size="14" dy=".8em" y="1251.4000304670951" x="1233.500031436267">别名</text></g></g><g id="minder_node33"><g id="node_expander32" style="cursor: pointer;" display="none"><path id="kity_path_287" fill="white" stroke="gray" d="M1440.5000344574448,1068.500027415804A6,6,0,1,1,1428.5000344574448,1068.500027415804A6,6,0,1,1,1440.5000344574448,1068.500027415804"></path><path id="kity_path_288" fill="none" stroke="gray"></path></g><path id="node_outline33" fill="none" stroke="none" d="M1445.5000346979366,1057.500027415804h43a5,5,0,0,1,5,5v12a5,5,0,0,1,-5,5h-43a5,5,0,0,1,-5,-5v-12a5,5,0,0,1,5,-5z" stroke-width="3"></path><g id="node_text33" fill="black"><text id="kity_text_284" text-rendering="inherit" font-size="12" dy=".8em" y="1060.7000274094808" x="1450.5000346979366">string</text></g></g><g id="minder_node34"><g id="node_expander33" style="cursor: pointer;" display="none"><path id="kity_path_295" fill="white" stroke="gray" d="M1440.5000344574448,1120.5000281974021A6,6,0,1,1,1428.5000344574448,1120.5000281974021A6,6,0,1,1,1440.5000344574448,1120.5000281974021"></path><path id="kity_path_296" fill="none" stroke="gray"></path></g><path id="node_outline34" fill="none" stroke="none" d="M1445.5000346979366,1109.5000281974021h47a5,5,0,0,1,5,5v12a5,5,0,0,1,-5,5h-47a5,5,0,0,1,-5,-5v-12a5,5,0,0,1,5,-5z" stroke-width="3"></path><g id="node_text34" fill="black"><text id="kity_text_292" text-rendering="inherit" font-size="12" dy=".8em" y="1112.700028191079" x="1450.5000346979366">object</text></g></g><g id="minder_node35"><g id="node_expander34" style="cursor: pointer;" display="none"><path id="kity_path_303" fill="white" stroke="gray" d="M1440.5000344574448,1172.5000289790005A6,6,0,1,1,1428.5000344574448,1172.5000289790005A6,6,0,1,1,1440.5000344574448,1172.5000289790005"></path><path id="kity_path_304" fill="none" stroke="gray"></path></g><path id="node_outline35" fill="none" stroke="none" d="M1445.5000346979366,1161.5000289790005h58a5,5,0,0,1,5,5v12a5,5,0,0,1,-5,5h-58a5,5,0,0,1,-5,-5v-12a5,5,0,0,1,5,-5z" stroke-width="3"></path><g id="node_text35" fill="black"><text id="kity_text_300" text-rendering="inherit" font-size="12" dy=".8em" y="1164.7000289726773" x="1450.5000346979366">function</text></g></g><g id="minder_node36"><g id="node_expander35" style="cursor: pointer;"><path id="kity_path_311" fill="white" stroke="gray" d="M1322.500032683818,1260.5000303017052A6,6,0,1,1,1310.500032683818,1260.5000303017052A6,6,0,1,1,1322.500032683818,1260.5000303017052"></path><path id="kity_path_312" fill="none" stroke="gray" d="M1312.000032683818,1260.5000303017052L1321.000032683818,1260.5000303017052"></path></g><path id="node_outline36" fill="none" stroke="none" d="M1327.5000329243098,1249.5000303017052h230a5,5,0,0,1,5,5v12a5,5,0,0,1,-5,5h-230a5,5,0,0,1,-5,-5v-12a5,5,0,0,1,5,-5z" stroke-width="3"></path><g id="node_text36" fill="black"><text id="kity_text_308" text-rendering="inherit" font-size="12" dy=".8em" y="1252.700030295382" x="1332.5000329243098">alias,路径可以是其他，但匹配的组件相同</text></g></g><g id="minder_node37"><g id="node_expander36" style="cursor: pointer;" display="none"><path id="kity_path_319" fill="white" stroke="gray" d="M1602.500036892424,1234.500029910906A6,6,0,1,1,1590.500036892424,1234.500029910906A6,6,0,1,1,1602.500036892424,1234.500029910906"></path><path id="kity_path_320" fill="none" stroke="gray"></path></g><path id="node_outline37" fill="none" stroke="none" d="M1607.5000371329158,1223.500029910906h95a5,5,0,0,1,5,5v12a5,5,0,0,1,-5,5h-95a5,5,0,0,1,-5,-5v-12a5,5,0,0,1,5,-5z" stroke-width="3"></path><g id="node_text37" fill="black"><text id="kity_text_316" text-rendering="inherit" font-size="12" dy=".8em" y="1226.7000299045828" x="1612.5000371329158">数组：多个别名</text></g></g><g id="minder_node38"><g id="node_expander37" style="cursor: pointer;" display="none"><path id="kity_path_327" fill="white" stroke="gray" d="M1602.500036892424,1286.5000306925044A6,6,0,1,1,1590.500036892424,1286.5000306925044A6,6,0,1,1,1602.500036892424,1286.5000306925044"></path><path id="kity_path_328" fill="none" stroke="gray"></path></g><path id="node_outline38" fill="none" stroke="none" d="M1607.5000371329158,1275.5000306925044h46a5,5,0,0,1,5,5v12a5,5,0,0,1,-5,5h-46a5,5,0,0,1,-5,-5v-12a5,5,0,0,1,5,-5z" stroke-width="3"></path><g id="node_text38" fill="black"><text id="kity_text_324" text-rendering="inherit" font-size="12" dy=".8em" y="1278.7000306861812" x="1612.5000371329158">字符串</text></g></g><g id="minder_node39"><g id="node_expander38" style="cursor: pointer;"><path id="kity_path_335" fill="white" stroke="gray" d="M855.5000260791054,323.5000162179058A6,6,0,1,1,843.5000260791054,323.5000162179058A6,6,0,1,1,855.5000260791054,323.5000162179058"></path><path id="kity_path_336" fill="none" stroke="gray" d="M845.0000260791054,323.5000162179058L854.0000260791054,323.5000162179058"></path></g><path id="node_outline39" fill="rgb(238, 243, 246)" stroke="rgb(115, 161, 191)" d="M748.5000244018826,310.5000162179058h91a3,3,0,0,1,3,3v20a3,3,0,0,1,-3,3h-91a3,3,0,0,1,-3,-3v-20a3,3,0,0,1,3,-3z" stroke-width="1"></path><g id="node_text39" fill="black"><text id="kity_text_332" text-rendering="inherit" font-size="14" dy=".8em" y="314.40001638329574" x="765.5000244018826">路由守卫</text></g></g><g id="minder_node40"><g id="node_expander39" style="cursor: pointer;"><path id="kity_path_343" fill="white" stroke="gray" d="M717.5000249378062,219.50001465470928A6,6,0,1,1,705.5000249378062,219.50001465470928A6,6,0,1,1,717.5000249378062,219.50001465470928"></path><path id="kity_path_344" fill="none" stroke="gray" d="M707.0000249378062,219.50001465470928L716.0000249378062,219.50001465470928"></path></g><path id="node_outline40" fill="none" stroke="none" d="M641.500022613225,208.50001465470928h59a5,5,0,0,1,5,5v12a5,5,0,0,1,-5,5h-59a5,5,0,0,1,-5,-5v-12a5,5,0,0,1,5,-5z" stroke-width="3"></path><g id="node_text40" fill="black"><text id="kity_text_340" text-rendering="inherit" font-size="12" dy=".8em" y="211.700014648386" x="646.500022613225">全局守卫</text></g></g><g id="minder_node41"><g id="node_expander40" style="cursor: pointer;"><path id="kity_path_351" fill="white" stroke="gray" d="M717.5000241085241,323.5000162179058A6,6,0,1,1,705.5000241085241,323.5000162179058A6,6,0,1,1,717.5000241085241,323.5000162179058"></path><path id="kity_path_352" fill="none" stroke="gray" d="M707.0000241085241,323.5000162179058L716.0000241085241,323.5000162179058"></path></g><path id="node_outline41" fill="none" stroke="none" d="M617.5000222524874,312.5000162179058h83a5,5,0,0,1,5,5v12a5,5,0,0,1,-5,5h-83a5,5,0,0,1,-5,-5v-12a5,5,0,0,1,5,-5z" stroke-width="3"></path><g id="node_text41" fill="black"><text id="kity_text_348" text-rendering="inherit" font-size="12" dy=".8em" y="315.7000162115825" x="622.5000222524874">路由独享守卫</text></g></g><g id="minder_node42"><g id="node_expander41" style="cursor: pointer;"><path id="kity_path_359" fill="white" stroke="gray" d="M717.5000227609409,427.5000177811023A6,6,0,1,1,705.5000227609409,427.5000177811023A6,6,0,1,1,717.5000227609409,427.5000177811023"></path><path id="kity_path_360" fill="none" stroke="gray" d="M707.0000227609409,427.5000177811023L716.0000227609409,427.5000177811023"></path></g><path id="node_outline42" fill="none" stroke="none" d="M618.5000222675181,416.5000177811023h82a5,5,0,0,1,5,5v12a5,5,0,0,1,-5,5h-82a5,5,0,0,1,-5,-5v-12a5,5,0,0,1,5,-5z" stroke-width="3"></path><g id="node_text42" fill="black"><text id="kity_text_356" text-rendering="inherit" font-size="12" dy=".8em" y="419.70001777477904" x="623.5000222675181">组件内部守卫</text></g></g><g id="minder_node43"><g id="node_expander42" style="cursor: pointer;" display="none"><path id="kity_path_367" fill="white" stroke="gray" d="M608.5000164578792,167.50001387311113A6,6,0,1,1,596.5000164578792,167.50001387311113A6,6,0,1,1,608.5000164578792,167.50001387311113"></path><path id="kity_path_368" fill="none" stroke="gray"></path></g><path id="node_outline43" fill="none" stroke="none" d="M478.50002016321514,156.50001387311113h113a5,5,0,0,1,5,5v12a5,5,0,0,1,-5,5h-113a5,5,0,0,1,-5,-5v-12a5,5,0,0,1,5,-5z" stroke-width="3"></path><g id="node_text43" fill="black"><text id="kity_text_364" text-rendering="inherit" font-size="12" dy=".8em" y="159.70001386678786" x="483.50002016321514">router.beforeEach</text></g></g><g id="minder_node44"><g id="node_expander43" style="cursor: pointer;" display="none"><path id="kity_path_375" fill="white" stroke="gray" d="M608.5000194640265,219.50001465470928A6,6,0,1,1,596.5000194640265,219.50001465470928A6,6,0,1,1,608.5000194640265,219.50001465470928"></path><path id="kity_path_376" fill="none" stroke="gray"></path></g><path id="node_outline44" fill="none" stroke="none" d="M461.5000199076926,208.50001465470928h130a5,5,0,0,1,5,5v12a5,5,0,0,1,-5,5h-130a5,5,0,0,1,-5,-5v-12a5,5,0,0,1,5,-5z" stroke-width="3"></path><g id="node_text44" fill="black"><text id="kity_text_372" text-rendering="inherit" font-size="12" dy=".8em" y="211.700014648386" x="466.5000199076926">router.beforeResolve</text></g></g><g id="minder_node45"><g id="node_expander44" style="cursor: pointer;" display="none"><path id="kity_path_383" fill="white" stroke="gray" d="M608.5000215372316,271.5000154363076A6,6,0,1,1,596.5000215372316,271.5000154363076A6,6,0,1,1,608.5000215372316,271.5000154363076"></path><path id="kity_path_384" fill="none" stroke="gray"></path></g><path id="node_outline45" fill="none" stroke="none" d="M489.50002032855326,260.5000154363076h102a5,5,0,0,1,5,5v12a5,5,0,0,1,-5,5h-102a5,5,0,0,1,-5,-5v-12a5,5,0,0,1,5,-5z" stroke-width="3"></path><g id="node_text45" fill="black"><text id="kity_text_380" text-rendering="inherit" font-size="12" dy=".8em" y="263.7000154299843" x="494.50002032855326">router.afterEach</text></g></g><g id="minder_node46"><g id="node_expander45" style="cursor: pointer;" display="none"><path id="kity_path_391" fill="white" stroke="gray" d="M584.5000271887889,323.5000162179058A6,6,0,1,1,572.5000271887889,323.5000162179058A6,6,0,1,1,584.5000271887889,323.5000162179058"></path><path id="kity_path_392" fill="none" stroke="gray"></path></g><path id="node_outline46" fill="none" stroke="none" d="M431.5000194567706,312.5000162179058h136a5,5,0,0,1,5,5v12a5,5,0,0,1,-5,5h-136a5,5,0,0,1,-5,-5v-12a5,5,0,0,1,5,-5z" stroke-width="3"></path><g id="node_text46" fill="black"><text id="kity_text_388" text-rendering="inherit" font-size="12" dy=".8em" y="315.7000162115825" x="436.5000194567706">routes: [{beforeEnter}]</text></g></g><g id="minder_node47"><g id="node_expander46" style="cursor: pointer;" display="none"><path id="kity_path_399" fill="white" stroke="gray" d="M585.5000213988452,375.50001699950406A6,6,0,1,1,573.5000213988452,375.50001699950406A6,6,0,1,1,585.5000213988452,375.50001699950406"></path><path id="kity_path_400" fill="none" stroke="gray"></path></g><path id="node_outline47" fill="none" stroke="none" d="M456.5000198325389,364.50001699950406h112a5,5,0,0,1,5,5v12a5,5,0,0,1,-5,5h-112a5,5,0,0,1,-5,-5v-12a5,5,0,0,1,5,-5z" stroke-width="3"></path><g id="node_text47" fill="black"><text id="kity_text_396" text-rendering="inherit" font-size="12" dy=".8em" y="367.7000169931808" x="461.5000198325389">beforeRouteEnter</text></g></g><g id="minder_node48"><g id="node_expander47" style="cursor: pointer;" display="none"><path id="kity_path_407" fill="white" stroke="gray" d="M585.5000243013324,427.5000177811023A6,6,0,1,1,573.5000243013324,427.5000177811023A6,6,0,1,1,585.5000243013324,427.5000177811023"></path><path id="kity_path_408" fill="none" stroke="gray"></path></g><path id="node_outline48" fill="none" stroke="none" d="M444.50001965217007,416.5000177811023h124a5,5,0,0,1,5,5v12a5,5,0,0,1,-5,5h-124a5,5,0,0,1,-5,-5v-12a5,5,0,0,1,5,-5z" stroke-width="3"></path><g id="node_text48" fill="black"><text id="kity_text_404" text-rendering="inherit" font-size="12" dy=".8em" y="419.70001777477904" x="449.50001965217007">beforeRouteUpdate </text></g></g><g id="minder_node49"><g id="node_expander48" style="cursor: pointer;" display="none"><path id="kity_path_415" fill="white" stroke="gray" d="M585.5000188073388,479.5000185627006A6,6,0,1,1,573.5000188073388,479.5000185627006A6,6,0,1,1,585.5000188073388,479.5000185627006"></path><path id="kity_path_416" fill="none" stroke="gray"></path></g><path id="node_outline49" fill="none" stroke="none" d="M453.5000197874467,468.5000185627006h115a5,5,0,0,1,5,5v12a5,5,0,0,1,-5,5h-115a5,5,0,0,1,-5,-5v-12a5,5,0,0,1,5,-5z" stroke-width="3"></path><g id="node_text49" fill="black"><text id="kity_text_412" text-rendering="inherit" font-size="12" dy=".8em" y="471.7000185563773" x="458.5000197874467">beforeRouteLeave</text></g></g><g id="minder_node50"><g id="node_expander49" style="cursor: pointer;"><path id="kity_path_423" fill="white" stroke="gray" d="M855.5000253534836,543.5000195246677A6,6,0,1,1,843.5000253534836,543.5000195246677A6,6,0,1,1,855.5000253534836,543.5000195246677"></path><path id="kity_path_424" fill="none" stroke="gray" d="M845.0000253534836,543.5000195246677L854.0000253534836,543.5000195246677"></path></g><path id="node_outline50" fill="rgb(238, 243, 246)" stroke="rgb(115, 161, 191)" d="M719.5000239659912,530.5000195246677h120a3,3,0,0,1,3,3v20a3,3,0,0,1,-3,3h-120a3,3,0,0,1,-3,-3v-20a3,3,0,0,1,3,-3z" stroke-width="1"></path><g id="node_text50" fill="black"><text id="kity_text_420" text-rendering="inherit" font-size="14" dy=".8em" y="534.4000196900575" x="736.5000239659912">导航解析流程</text></g></g><g id="minder_node51"><g id="node_expander50" style="cursor: pointer;"><path id="kity_path_431" fill="white" stroke="gray" d="M688.5000258494981,543.5000195246677A6,6,0,1,1,676.5000258494981,543.5000195246677A6,6,0,1,1,688.5000258494981,543.5000195246677"></path><path id="kity_path_432" fill="none" stroke="gray" d="M678.0000258494981,543.5000195246677L687.0000258494981,543.5000195246677"></path></g><path id="node_outline51" fill="none" stroke="none" d="M611.5000221623029,532.5000195246677h60a5,5,0,0,1,5,5v12a5,5,0,0,1,-5,5h-60a5,5,0,0,1,-5,-5v-12a5,5,0,0,1,5,-5z" stroke-width="3"></path><g id="node_text51" fill="black"><text id="kity_text_428" text-rendering="inherit" font-size="12" dy=".8em" y="535.7000195183443" x="616.5000221623029">导航触发</text></g></g><g id="minder_node53"><g id="node_expander52" style="cursor: pointer;"><path id="kity_path_447" fill="white" stroke="gray" d="M578.5000257510211,543.5000195246677A6,6,0,1,1,566.5000257510211,543.5000195246677A6,6,0,1,1,578.5000257510211,543.5000195246677"></path><path id="kity_path_448" fill="none" stroke="gray" d="M568.0000257510211,543.5000195246677L577.0000257510211,543.5000195246677"></path></g><path id="node_outline53" fill="none" stroke="none" d="M362.5000184196498,532.5000195246677h199a5,5,0,0,1,5,5v12a5,5,0,0,1,-5,5h-199a5,5,0,0,1,-5,-5v-12a5,5,0,0,1,5,-5z" stroke-width="3"></path><g id="node_text53" fill="black"><text id="kity_text_444" text-rendering="inherit" font-size="12" dy=".8em" y="535.7000195183443" x="367.5000184196498">在失活组件调用beforeRouteLeave </text></g></g><g id="kity_g_12" display="none"><path id="kity_path_13" fill="none" stroke="rgb(66, 94, 112)" d="M501.5000277236752,1013.5000216440014h60a5,5,0,0,1,5,5v12a5,5,0,0,1,-5,5h-60a5,5,0,0,1,-5,-5v-12a5,5,0,0,1,5,-5z" stroke-width="5"></path></g><g id="minder_node54" opacity="1"><g id="node_expander53" style="cursor: pointer;"><path id="kity_path_455" fill="white" stroke="gray" d="M453.50001993308945,613.5000205768192A6,6,0,1,1,441.50001993308945,613.5000205768192A6,6,0,1,1,453.50001993308945,613.5000205768192"></path><path id="kity_path_456" fill="none" stroke="gray" d="M443.00001993308945,613.5000205768192L452.00001993308945,613.5000205768192"></path></g><path id="node_outline54" fill="none" stroke="none" d="M299.50001747271347,602.5000205768192h137a5,5,0,0,1,5,5v12a5,5,0,0,1,-5,5h-137a5,5,0,0,1,-5,-5v-12a5,5,0,0,1,5,-5z" stroke-width="3"></path><g id="node_text54" fill="black"><text id="kity_text_452" text-rendering="inherit" font-size="12" dy=".8em" y="605.7000205704959" x="304.50001747271347">全局router.beforeEach</text></g></g><g id="minder_node55" opacity="1"><g id="node_expander54" style="cursor: pointer;"><path id="kity_path_463" fill="white" stroke="gray" d="M372.5000141545487,687.5000216890936A6,6,0,1,1,360.5000141545487,687.5000216890936A6,6,0,1,1,372.5000141545487,687.5000216890936"></path><path id="kity_path_464" fill="none" stroke="gray" d="M362.0000141545487,687.5000216890936L371.0000141545487,687.5000216890936"></path></g><path id="node_outline55" fill="none" stroke="none" d="M182.50001571411747,676.5000216890936h173a5,5,0,0,1,5,5v12a5,5,0,0,1,-5,5h-173a5,5,0,0,1,-5,-5v-12a5,5,0,0,1,5,-5z" stroke-width="3"></path><g id="node_text55" fill="black"><text id="kity_text_460" text-rendering="inherit" font-size="12" dy=".8em" y="679.7000216827703" x="187.50001571411747">复用组件beforeRouteUpdate</text></g></g><g id="minder_node56" opacity="1"><g id="node_expander55" style="cursor: pointer;"><path id="kity_path_473" fill="white" stroke="gray" d="M296.50001736594334,753.5000226811221A6,6,0,1,1,284.50001736594334,753.5000226811221A6,6,0,1,1,296.50001736594334,753.5000226811221"></path><path id="kity_path_474" fill="none" stroke="gray" d="M286.00001736594334,753.5000226811221L295.00001736594334,753.5000226811221"></path></g><path id="node_outline56" fill="none" stroke="none" d="M152.50001526319522,742.5000226811221h127a5,5,0,0,1,5,5v12a5,5,0,0,1,-5,5h-127a5,5,0,0,1,-5,-5v-12a5,5,0,0,1,5,-5z" stroke-width="3"></path><g id="node_text56" fill="black"><text id="kity_text_470" text-rendering="inherit" font-size="12" dy=".8em" y="745.7000226747988" x="157.50001526319522">路由配置beforeEnter</text></g></g><g id="minder_node57" opacity="1"><g id="node_expander56" style="cursor: pointer;"><path id="kity_path_481" fill="white" stroke="gray" d="M214.50001789564737,843.5000240338884A6,6,0,1,1,202.50001789564737,843.5000240338884A6,6,0,1,1,214.50001789564737,843.5000240338884"></path><path id="kity_path_482" fill="none" stroke="gray" d="M204.00001789564737,843.5000240338884L213.00001789564737,843.5000240338884"></path></g><path id="node_outline57" fill="none" stroke="none" d="M113.50001467699656,832.5000240338884h84a5,5,0,0,1,5,5v12a5,5,0,0,1,-5,5h-84a5,5,0,0,1,-5,-5v-12a5,5,0,0,1,5,-5z" stroke-width="3"></path><g id="node_text57" fill="black"><text id="kity_text_478" text-rendering="inherit" font-size="12" dy=".8em" y="835.7000240275651" x="118.50001467699656">解析异步组件</text></g></g><g id="minder_node58" opacity="1"><g id="node_expander57" style="cursor: pointer;"><path id="kity_path_489" fill="white" stroke="gray" d="M241.50001197820166,939.500025476839A6,6,0,1,1,229.50001197820166,939.500025476839A6,6,0,1,1,241.50001197820166,939.500025476839"></path><path id="kity_path_490" fill="none" stroke="gray" d="M231.00001197820166,939.500025476839L240.00001197820166,939.500025476839"></path></g><path id="node_outline58" fill="none" stroke="none" d="M61.5000138953983,928.500025476839h163a5,5,0,0,1,5,5v12a5,5,0,0,1,-5,5h-163a5,5,0,0,1,-5,-5v-12a5,5,0,0,1,5,-5z" stroke-width="3"></path><g id="node_text58" fill="black"><text id="kity_text_486" text-rendering="inherit" font-size="12" dy=".8em" y="931.7000254705157" x="66.5000138953983">在被激活的组件beforeEnter</text></g></g><g id="minder_node59" opacity="1"><g id="node_expander58" style="cursor: pointer;"><path id="kity_path_497" fill="white" stroke="gray" d="M158.5000150843813,1031.5000268596668A6,6,0,1,1,146.5000150843813,1031.5000268596668A6,6,0,1,1,158.5000150843813,1031.5000268596668"></path><path id="kity_path_498" fill="none" stroke="gray" d="M148.0000150843813,1031.5000268596668L157.0000150843813,1031.5000268596668"></path></g><path id="node_outline59" fill="none" stroke="none" d="M24.500013339261045,1020.5000268596668h117a5,5,0,0,1,5,5v12a5,5,0,0,1,-5,5h-117a5,5,0,0,1,-5,-5v-12a5,5,0,0,1,5,-5z" stroke-width="3"></path><g id="node_text59" fill="black"><text id="kity_text_494" text-rendering="inherit" font-size="12" dy=".8em" y="1023.7000268533436" x="29.500013339261045">全局beforeResolve</text></g></g><g id="minder_node60" opacity="1"><g id="node_expander59" style="cursor: pointer;"><path id="kity_path_505" fill="white" stroke="gray" d="M136.50001755253209,1104.5000279569103A6,6,0,1,1,124.50001755253209,1104.5000279569103A6,6,0,1,1,136.50001755253209,1104.5000279569103"></path><path id="kity_path_506" fill="none" stroke="gray" d="M126.00001755253209,1104.5000279569103L135.00001755253209,1104.5000279569103"></path></g><path id="node_outline60" fill="none" stroke="none" d="M59.50001386533688,1093.5000279569103h60a5,5,0,0,1,5,5v12a5,5,0,0,1,-5,5h-60a5,5,0,0,1,-5,-5v-12a5,5,0,0,1,5,-5z" stroke-width="3"></path><g id="node_text60" fill="black"><text id="kity_text_502" text-rendering="inherit" font-size="12" dy=".8em" y="1096.7000279505871" x="64.50001386533688">导航确认</text></g></g><g id="minder_node61" opacity="1"><g id="node_expander60" style="cursor: pointer;"><path id="kity_path_513" fill="white" stroke="gray" d="M200.5000159229927,1169.5000289339082A6,6,0,1,1,188.5000159229927,1169.5000289339082A6,6,0,1,1,200.5000159229927,1169.5000289339082"></path><path id="kity_path_514" fill="none" stroke="gray" d="M190.0000159229927,1169.5000289339082L199.0000159229927,1169.5000289339082"></path></g><path id="node_outline61" fill="none" stroke="none" d="M120.50001478221168,1158.5000289339082h63a5,5,0,0,1,5,5v12a5,5,0,0,1,-5,5h-63a5,5,0,0,1,-5,-5v-12a5,5,0,0,1,5,-5z" stroke-width="3"></path><g id="node_text61" fill="black"><text id="kity_text_510" text-rendering="inherit" font-size="12" dy=".8em" y="1161.700028927585" x="125.50001478221168">afterEach</text></g></g><g id="minder_node62" opacity="1"><g id="node_expander61" style="cursor: pointer;"><path id="kity_path_521" fill="white" stroke="gray" d="M215.50001480087042,1255.5000302265516A6,6,0,1,1,203.50001480087042,1255.5000302265516A6,6,0,1,1,215.50001480087042,1255.5000302265516"></path><path id="kity_path_522" fill="none" stroke="gray" d="M205.00001480087042,1255.5000302265516L214.00001480087042,1255.5000302265516"></path></g><path id="node_outline62" fill="none" stroke="none" d="M136.50001502270345,1244.5000302265516h62a5,5,0,0,1,5,5v12a5,5,0,0,1,-5,5h-62a5,5,0,0,1,-5,-5v-12a5,5,0,0,1,5,-5z" stroke-width="3"></path><g id="node_text62" fill="black"><text id="kity_text_518" text-rendering="inherit" font-size="12" dy=".8em" y="1247.7000302202284" x="141.50001502270345">dom更新</text></g></g><g id="minder_node63" opacity="1"><g id="node_expander62" style="cursor: pointer;" display="none"><path id="kity_path_529" fill="white" stroke="gray" d="M382.50002301231746,1341.5000315191949A6,6,0,1,1,370.50002301231746,1341.5000315191949A6,6,0,1,1,382.50002301231746,1341.5000315191949"></path><path id="kity_path_530" fill="none" stroke="gray"></path></g><path id="node_outline63" fill="none" stroke="none" d="M156.50001532331828,1330.5000315191949h209a5,5,0,0,1,5,5v12a5,5,0,0,1,-5,5h-209a5,5,0,0,1,-5,-5v-12a5,5,0,0,1,5,-5z" stroke-width="3"></path><g id="node_text63" fill="black"><text id="kity_text_526" text-rendering="inherit" font-size="12" dy=".8em" y="1333.7000315128716" x="161.50001532331828">beforeRouteEnter中next的回调函数</text></g></g><g id="minder_node64"><g id="node_expander63" style="cursor: pointer;" display="none"><path id="kity_path_537" fill="white" stroke="gray" d="M855.5000263900862,609.5000205166963A6,6,0,1,1,843.5000263900862,609.5000205166963A6,6,0,1,1,855.5000263900862,609.5000205166963"></path><path id="kity_path_538" fill="none" stroke="gray"></path></g><path id="node_outline64" fill="rgb(238, 243, 246)" stroke="rgb(115, 161, 191)" d="M733.5000241764216,596.5000205166963h106a3,3,0,0,1,3,3v20a3,3,0,0,1,-3,3h-106a3,3,0,0,1,-3,-3v-20a3,3,0,0,1,3,-3z" stroke-width="1"></path><g id="node_text64" fill="black"><text id="kity_text_534" text-rendering="inherit" font-size="14" dy=".8em" y="600.4000206820862" x="750.5000241764216">路由元信息</text></g></g><g id="minder_node65"><g id="node_expander64" style="cursor: pointer;" display="none"><path id="kity_path_545" fill="white" stroke="gray" d="M855.5000260791054,675.5000215087248A6,6,0,1,1,843.5000260791054,675.5000215087248A6,6,0,1,1,855.5000260791054,675.5000215087248"></path><path id="kity_path_546" fill="none" stroke="gray"></path></g><path id="node_outline65" fill="rgb(238, 243, 246)" stroke="rgb(115, 161, 191)" d="M748.5000244018826,662.5000215087248h91a3,3,0,0,1,3,3v20a3,3,0,0,1,-3,3h-91a3,3,0,0,1,-3,-3v-20a3,3,0,0,1,3,-3z" stroke-width="1"></path><g id="node_text65" fill="black"><text id="kity_text_542" text-rendering="inherit" font-size="14" dy=".8em" y="666.4000216741147" x="765.5000244018826">动态效果</text></g></g><g id="minder_node66"><g id="node_expander65" style="cursor: pointer;"><path id="kity_path_553" fill="white" stroke="gray" d="M855.5000274266888,765.5000228614911A6,6,0,1,1,843.5000274266888,765.5000228614911A6,6,0,1,1,855.5000274266888,765.5000228614911"></path><path id="kity_path_554" fill="none" stroke="gray" d="M845.0000274266888,765.5000228614911L854.0000274266888,765.5000228614911"></path></g><path id="node_outline66" fill="rgb(238, 243, 246)" stroke="rgb(115, 161, 191)" d="M747.5000243868519,752.5000228614911h92a3,3,0,0,1,3,3v20a3,3,0,0,1,-3,3h-92a3,3,0,0,1,-3,-3v-20a3,3,0,0,1,3,-3z" stroke-width="1"></path><g id="node_text66" fill="black"><text id="kity_text_550" text-rendering="inherit" font-size="14" dy=".8em" y="756.400023026881" x="764.5000243868519">数据获取</text></g></g><g id="minder_node67"><g id="node_expander66" style="cursor: pointer;" display="none"><path id="kity_path_561" fill="white" stroke="gray" d="M716.5000260630384,739.5000224706919A6,6,0,1,1,704.5000260630384,739.5000224706919A6,6,0,1,1,716.5000260630384,739.5000224706919"></path><path id="kity_path_562" fill="none" stroke="gray"></path></g><path id="node_outline67" fill="none" stroke="none" d="M585.500021771504,728.5000224706919h114a5,5,0,0,1,5,5v12a5,5,0,0,1,-5,5h-114a5,5,0,0,1,-5,-5v-12a5,5,0,0,1,5,-5z" stroke-width="3"></path><g id="node_text67" fill="black"><text id="kity_text_558" text-rendering="inherit" font-size="12" dy=".8em" y="731.7000224643685" x="590.500021771504">导航完成后created</text></g></g><g id="minder_node68"><g id="node_expander67" style="cursor: pointer;" display="none"><path id="kity_path_569" fill="white" stroke="gray" d="M716.5000222276088,791.5000232522901A6,6,0,1,1,704.5000222276088,791.5000232522901A6,6,0,1,1,716.5000222276088,791.5000232522901"></path><path id="kity_path_570" fill="none" stroke="gray"></path></g><path id="node_outline68" fill="none" stroke="none" d="M514.5000207043216,780.5000232522901h185a5,5,0,0,1,5,5v12a5,5,0,0,1,-5,5h-185a5,5,0,0,1,-5,-5v-12a5,5,0,0,1,5,-5z" stroke-width="3"></path><g id="node_text68" fill="black"><text id="kity_text_566" text-rendering="inherit" font-size="12" dy=".8em" y="783.7000232459668" x="519.5000207043216">导航完成前，beforeRouteEnter</text></g></g><g id="minder_node69"><g id="node_expander68" style="cursor: pointer;"><path id="kity_path_577" fill="white" stroke="gray" d="M855.5000281523105,905.500024965794A6,6,0,1,1,843.5000281523105,905.500024965794A6,6,0,1,1,855.5000281523105,905.500024965794"></path><path id="kity_path_578" fill="none" stroke="gray" d="M845.0000281523105,905.500024965794L854.0000281523105,905.500024965794"></path></g><path id="node_outline69" fill="rgb(238, 243, 246)" stroke="rgb(115, 161, 191)" d="M776.5000248227432,892.500024965794h63a3,3,0,0,1,3,3v20a3,3,0,0,1,-3,3h-63a3,3,0,0,1,-3,-3v-20a3,3,0,0,1,3,-3z" stroke-width="1"></path><g id="node_text69" fill="black"><text id="kity_text_574" text-rendering="inherit" font-size="14" dy=".8em" y="896.4000251311838" x="793.5000248227432">滚动</text></g></g><g id="minder_node70"><g id="node_expander69" style="cursor: pointer;" display="none"><path id="kity_path_585" fill="white" stroke="gray" d="M745.5000263952693,853.5000241841958A6,6,0,1,1,733.5000263952693,853.5000241841958A6,6,0,1,1,745.5000263952693,853.5000241841958"></path><path id="kity_path_586" fill="none" stroke="gray"></path></g><path id="node_outline70" fill="none" stroke="none" d="M619.5000222825488,842.5000241841958h109a5,5,0,0,1,5,5v12a5,5,0,0,1,-5,5h-109a5,5,0,0,1,-5,-5v-12a5,5,0,0,1,5,-5z" stroke-width="3"></path><g id="node_text70" fill="black"><text id="kity_text_582" text-rendering="inherit" font-size="12" dy=".8em" y="845.7000241778725" x="624.5000222825488">history.pushState</text></g></g><g id="minder_node71"><g id="node_expander70" style="cursor: pointer;" display="none"><path id="kity_path_593" fill="white" stroke="gray" d="M745.5000251513463,905.500024965794A6,6,0,1,1,733.5000251513463,905.500024965794A6,6,0,1,1,745.5000251513463,905.500024965794"></path><path id="kity_path_594" fill="none" stroke="gray"></path></g><path id="node_outline71" fill="none" stroke="none" d="M551.5000212604589,894.500024965794h177a5,5,0,0,1,5,5v12a5,5,0,0,1,-5,5h-177a5,5,0,0,1,-5,-5v-12a5,5,0,0,1,5,-5z" stroke-width="3"></path><g id="node_text71" fill="black"><text id="kity_text_590" text-rendering="inherit" font-size="12" dy=".8em" y="897.7000249594706" x="556.5000212604589">Router实例添加scrollBehavior </text></g></g><g id="minder_node72"><g id="node_expander71" style="cursor: pointer;" display="none"><path id="kity_path_601" fill="white" stroke="gray" d="M745.5000240110835,957.5000257473923A6,6,0,1,1,733.5000240110835,957.5000257473923A6,6,0,1,1,745.5000240110835,957.5000257473923"></path><path id="kity_path_602" fill="none" stroke="gray"></path></g><path id="node_outline72" fill="none" stroke="none" d="M670.5000230491164,946.5000257473923h58a5,5,0,0,1,5,5v12a5,5,0,0,1,-5,5h-58a5,5,0,0,1,-5,-5v-12a5,5,0,0,1,5,-5z" stroke-width="3"></path><g id="node_text72" fill="black"><text id="kity_text_598" text-rendering="inherit" font-size="12" dy=".8em" y="949.700025741069" x="675.5000230491164">异步滚动</text></g></g><g id="minder_node73"><g id="node_expander72" style="cursor: pointer;"><path id="kity_path_609" fill="white" stroke="gray" d="M855.5000263900862,1045.500027070097A6,6,0,1,1,843.5000263900862,1045.500027070097A6,6,0,1,1,855.5000263900862,1045.500027070097"></path><path id="kity_path_610" fill="none" stroke="gray" d="M845.0000263900862,1045.500027070097L854.0000263900862,1045.500027070097"></path></g><path id="node_outline73" fill="rgb(238, 243, 246)" stroke="rgb(115, 161, 191)" d="M733.5000241764216,1032.500027070097h106a3,3,0,0,1,3,3v20a3,3,0,0,1,-3,3h-106a3,3,0,0,1,-3,-3v-20a3,3,0,0,1,3,-3z" stroke-width="1"></path><g id="node_text73" fill="black"><text id="kity_text_606" text-rendering="inherit" font-size="14" dy=".8em" y="1036.400027235487" x="750.5000241764216">路由懒加载</text></g></g><g id="minder_node74"><g id="node_expander73" style="cursor: pointer;" display="none"><path id="kity_path_617" fill="white" stroke="gray" d="M702.5000258526079,1019.5000266792979A6,6,0,1,1,690.5000258526079,1019.5000266792979A6,6,0,1,1,702.5000258526079,1019.5000266792979"></path><path id="kity_path_618" fill="none" stroke="gray"></path></g><path id="node_outline74" fill="none" stroke="none" d="M635.5000225230406,1008.5000266792979h50a5,5,0,0,1,5,5v12a5,5,0,0,1,-5,5h-50a5,5,0,0,1,-5,-5v-12a5,5,0,0,1,5,-5z" stroke-width="3"></path><g id="node_text74" fill="black"><text id="kity_text_614" text-rendering="inherit" font-size="12" dy=".8em" y="1011.7000266729746" x="640.5000225230406">import</text></g></g><g id="minder_node75"><g id="node_expander74" style="cursor: pointer;" display="none"><path id="kity_path_625" fill="white" stroke="gray" d="M702.500020565935,1071.500027460896A6,6,0,1,1,690.500020565935,1071.500027460896A6,6,0,1,1,702.500020565935,1071.500027460896"></path><path id="kity_path_626" fill="none" stroke="gray"></path></g><path id="node_outline75" fill="none" stroke="none" d="M634.5000225080099,1060.500027460896h51a5,5,0,0,1,5,5v12a5,5,0,0,1,-5,5h-51a5,5,0,0,1,-5,-5v-12a5,5,0,0,1,5,-5z" stroke-width="3"></path><g id="node_text75" fill="black"><text id="kity_text_622" text-rendering="inherit" font-size="12" dy=".8em" y="1063.7000274545728" x="639.5000225080099">require</text></g></g></g></g></svg>